#!OML:ASF E:\Steps\Project 1\Capture day 1\Session 2\Subject.ASF
:FULLY-SPECIFIED
:DEGREES
347
root 6.93883 16.176 24.7864 -155.925 2.15473 177.528
lowerback -22.633 -1.53011 -7.46029
upperback 0.378534 0.512781 -1.72933
thorax 13.1878 -0.0646742 2.50673
lowerneck -2.99746 -3.01766 -1.49846
upperneck 16.6648 -3.81764 4.59776
head 5.62988 -1.29125 1.50468
rclavicle -5.96354e-016 -6.20208e-014
rhumerus -37.7191 -13.5179 -80.4518
rradius 41.7551
rwrist -6.50823
rhand -6.24821 -52.8867
rfingers 7.12502
rthumb 19.5937 -81.9193
lclavicle -5.96354e-016 -6.20208e-014
lhumerus -30.6074 7.19226 79.0426
lradius 26.5403
lwrist -1.31059
lhand -21.1244 -13.3211
lfingers 7.12502
lthumb 5.25423 16.5938
rfemur -45.3845 -2.51317 20.4333
rtibia 63.6076
rfoot -15.6885 -9.77709
rtoes -36.614
lfemur -29.5513 -9.99487 -22.7978
ltibia 18.6875
lfoot -11.2122 -0.254909
ltoes -26.8463
348
root 6.9327 16.1823 24.7045 -156.055 2.06809 177.59
lowerback -22.4331 -1.51841 -7.38794
upperback 0.437227 0.464973 -1.64067
thorax 13.1456 -0.0919882 2.5483
lowerneck -3.01702 -3.12692 -1.44899
upperneck 16.5016 -3.9911 4.64655
head 5.588 -1.37905 1.50023
rclavicle 7.15625e-015 1.35174e-014
rhumerus -37.8359 -13.9738 -80.0565
rradius 41.3543
rwrist -6.10322
rhand -6.42311 -53.0611
rfingers 7.12502
rthumb 19.4256 -82.1108
lclavicle 7.15625e-015 1.35174e-014
lhumerus -30.3679 6.79106 79.2607
lradius 26.9392
lwrist -0.942154
lhand -21.0856 -13.3719
lfingers 7.12502
lthumb 5.2917 16.542
rfemur -46.0838 -2.31303 20.2288
rtibia 62.7105
rfoot -16.4393 -9.74437
rtoes -37.407
lfemur -28.9482 -10.1034 -22.8188
ltibia 18.4392
lfoot -11.4085 -0.156128
ltoes -27.4727
349
root 6.92911 16.1861 24.6234 -156.162 1.9768 177.646
lowerback -22.5137 -1.5321 -7.38833
upperback 0.654884 0.414471 -1.46119
thorax 13.4491 -0.150469 2.7312
lowerneck -3.18133 -3.15222 -1.61811
upperneck 16.303 -4.04294 4.67452
head 5.5599 -1.42801 1.5302
rclavicle 3.97569e-016 -1.51076e-014
rhumerus -37.7309 -14.2812 -79.5926
rradius 40.9882
rwrist -5.91907
rhand -6.29396 -52.9353
rfingers 7.12502
rthumb 19.5498 -81.9724
lclavicle 3.97569e-016 -1.51076e-014
lhumerus -29.8667 6.65043 79.6507
lradius 27.3136
lwrist -0.637251
lhand -20.9727 -13.1784
lfingers 7.12502
lthumb 5.40074 16.7328
rfemur -46.7733 -2.1206 20.0198
rtibia 61.7324
rfoot -17.0099 -10.1123
rtoes -37.6433
lfemur -28.4105 -10.2311 -22.8237
ltibia 18.2312
lfoot -11.5924 0.10258
ltoes -28.6768
350
root 6.92908 16.1891 24.5404 -156.248 1.90795 177.688
lowerback -22.6626 -1.57795 -7.31582
upperback 0.851929 0.329516 -1.3799
thorax 13.774 -0.21133 2.75031
lowerneck -3.42224 -3.0902 -1.69994
upperneck 16.3674 -3.97081 4.72603
head 5.62153 -1.39401 1.56099
rclavicle 1.78906e-015 3.77691e-014
rhumerus -37.6721 -14.5079 -79.3573
rradius 40.6672
rwrist -5.83257
rhand -6.10959 -52.7625
rfingers 7.12502
rthumb 19.727 -81.7815
lclavicle 1.78906e-015 3.77691e-014
lhumerus -29.4513 6.44993 79.7618
lradius 27.6818
lwrist -0.289936
lhand -20.9656 -13.2893
lfingers 7.12502
lthumb 5.40753 16.6217
rfemur -47.3642 -1.90905 19.762
rtibia 60.4776
rfoot -17.276 -10.6306
rtoes -36.9238
lfemur -27.8809 -10.2932 -22.8401
ltibia 18.05
lfoot -11.8419 0.191247
ltoes -29.2495
351
root 6.93074 16.1911 24.4523 -156.326 1.86842 177.766
lowerback -22.779 -1.62981 -7.21374
upperback 0.979328 0.233595 -1.33629
thorax 14.0005 -0.264735 2.70674
lowerneck -3.56199 -3.02911 -1.68183
upperneck 16.3722 -3.91467 4.85623
head 5.64716 -1.35683 1.60046
rclavicle 1.0138e-014 -8.74653e-015
rhumerus -37.6511 -14.9069 -79.154
rradius 40.169
rwrist -5.50906
rhand -5.90945 -52.4887
rfingers 7.12502
rthumb 19.9194 -81.4879
lclavicle 1.0138e-014 -8.74653e-015
lhumerus -29.16 6.20142 79.7113
lradius 27.9814
lwrist 0.0284355
lhand -21.0144 -13.4185
lfingers 7.12502
lthumb 5.36045 16.4937
rfemur -47.8531 -1.70618 19.5409
rtibia 59.0296
rfoot -17.7071 -11.049
rtoes -36.5574
lfemur -27.3185 -10.308 -22.8177
ltibia 17.8448
lfoot -12.0552 0.0331967
ltoes -28.2402
352
root 6.9282 16.191 24.36 -156.371 1.81012 177.918
lowerback -22.9666 -1.68371 -7.11161
upperback 1.12196 0.122049 -1.19434
thorax 14.2876 -0.334504 2.76935
lowerneck -3.48411 -3.02253 -1.65143
upperneck 16.0323 -3.93568 4.93697
head 5.52937 -1.378 1.61864
rclavicle -1.59028e-015 9.54166e-015
rhumerus -37.4829 -15.3413 -78.7993
rradius 39.4795
rwrist -5.21406
rhand -5.76585 -52.1431
rfingers 7.12502
rthumb 20.0574 -81.1278
lclavicle -1.59028e-015 9.54166e-015
lhumerus -28.8131 5.95833 79.853
lradius 28.2774
lwrist 0.289507
lhand -21.2135 -13.1785
lfingers 7.12502
lthumb 5.16822 16.7385
rfemur -48.3329 -1.4852 19.3686
rtibia 57.5973
rfoot -18.2732 -11.5488
rtoes -36.5792
lfemur -26.7564 -10.301 -22.7234
ltibia 17.5666
lfoot -12.1647 -0.111702
ltoes -25.9548
353
root 6.92283 16.1915 24.2665 -156.442 1.70068 178.147
lowerback -23.0092 -1.71083 -6.75089
upperback 1.14854 -0.0269577 -1.12607
thorax 14.3547 -0.384023 2.58889
lowerneck -3.06877 -3.14214 -1.32806
upperneck 15.7655 -4.08942 4.73739
head 5.3703 -1.45914 1.49826
rclavicle 7.15625e-015 1.43125e-014
rhumerus -37.6223 -15.6805 -78.5924
rradius 38.9299
rwrist -4.93465
rhand -5.83422 -52.3079
rfingers 7.12502
rthumb 19.9917 -81.2995
lclavicle 7.15625e-015 1.43125e-014
lhumerus -28.7421 5.4489 79.8768
lradius 28.7052
lwrist 0.717949
lhand -21.2559 -12.7662
lfingers 7.12502
lthumb 5.12726 17.1518
rfemur -48.7223 -1.24207 19.2432
rtibia 56.0356
rfoot -18.6282 -12.0855
rtoes -35.7963
lfemur -26.1591 -10.2882 -22.5658
ltibia 17.3152
lfoot -12.3695 -0.159916
ltoes -24.5061
354
root 6.92511 16.192 24.1878 -156.406 1.38637 178.15
lowerback -22.6156 -1.8818 -6.73385
upperback 0.885063 -0.309471 -1.01827
thorax 13.8433 -0.49057 2.61133
lowerneck -2.50845 -3.34684 -1.00146
upperneck 15.8369 -4.29745 4.30596
head 5.28774 -1.56228 1.30691
rclavicle 2.38542e-015 -3.18055e-015
rhumerus -38.2694 -15.9265 -78.1798
rradius 38.4986
rwrist -4.49755
rhand -6.40888 -52.7341
rfingers 7.12502
rthumb 19.4393 -81.7824
lclavicle 2.38542e-015 -3.18055e-015
lhumerus -28.9964 5.12432 79.8954
lradius 29.0179
lwrist 0.914191
lhand -20.9646 -12.8607
lfingers 7.12502
lthumb 5.40852 17.0503
rfemur -49.2115 -1.32126 18.9841
rtibia 54.2782
rfoot -18.6043 -12.7688
rtoes -35.6891
lfemur -25.8774 -10.384 -22.5638
ltibia 17.3328
lfoot -12.6338 -0.443404
ltoes -23.3752
355
root 6.92831 16.1902 24.0994 -156.404 1.37385 178.093
lowerback -22.8551 -1.94974 -6.77233
upperback 1.03695 -0.371086 -1.00254
thorax 14.1679 -0.538177 2.62548
lowerneck -2.51642 -3.33453 -0.925595
upperneck 15.6923 -4.29524 4.29677
head 5.24243 -1.56614 1.2911
rclavicle 7.95139e-016 1.11319e-014
rhumerus -38.2408 -16.2346 -77.9792
rradius 38.0369
rwrist -4.37097
rhand -7.38859 -53.003
rfingers 7.12502
rthumb 18.4971 -82.1435
lclavicle 7.95139e-016 1.11319e-014
lhumerus -28.5259 5.05072 79.912
lradius 29.1533
lwrist 0.724001
lhand -20.8622 -13.4762
lfingers 7.12502
lthumb 5.50739 16.4323
rfemur -49.5438 -1.18083 18.5397
rtibia 52.3163
rfoot -18.3994 -13.3711
rtoes -35.9444
lfemur -25.3759 -10.4039 -22.6856
ltibia 17.0772
lfoot -12.8009 -0.515436
ltoes -21.9766
356
root 6.93507 16.1888 24.0095 -156.41 1.26329 178.186
lowerback -22.7777 -2.00064 -6.72391
upperback 1.03634 -0.482267 -0.885947
thorax 14.1334 -0.592778 2.6929
lowerneck -2.79368 -3.30317 -1.13744
upperneck 15.797 -4.2774 4.50486
head 5.33046 -1.55298 1.38763
rclavicle 1.19271e-014 8.74653e-015
rhumerus -38.4325 -16.3491 -77.733
rradius 37.7413
rwrist -4.62352
rhand -8.2044 -53.5765
rfingers 7.12502
rthumb 17.7122 -82.7898
lclavicle 1.19271e-014 8.74653e-015
lhumerus -28.42 4.75712 80.0236
lradius 29.4059
lwrist 0.448887
lhand -21.075 -13.8429
lfingers 7.12502
lthumb 5.30192 16.0708
rfemur -49.734 -0.958818 18.2395
rtibia 50.1928
rfoot -18.3055 -13.841
rtoes -35.6754
lfemur -24.866 -10.3333 -22.6057
ltibia 16.8138
lfoot -12.9181 -0.595217
ltoes -21.9024
357
root 6.94103 16.1842 23.9159 -156.458 1.07398 178.335
lowerback -22.7033 -2.05401 -6.6182
upperback 1.04226 -0.622932 -0.713169
thorax 14.111 -0.66124 2.78151
lowerneck -3.11104 -3.26962 -1.33624
upperneck 15.9744 -4.24264 4.61724
head 5.44525 -1.53385 1.45303
rclavicle 4.57205e-015 -1.94809e-014
rhumerus -38.5809 -16.8221 -77.3143
rradius 37.23
rwrist -4.37156
rhand -8.51202 -54.1125
rfingers 7.12502
rthumb 17.4161 -83.3523
lclavicle 4.57205e-015 -1.94809e-014
lhumerus -28.3341 4.41389 80.198
lradius 29.6049
lwrist 0.154346
lhand -21.4381 -13.6239
lfingers 7.12502
lthumb 4.95139 16.2982
rfemur -49.8178 -0.726632 18.003
rtibia 48.0311
rfoot -18.403 -14.3311
rtoes -36.2893
lfemur -24.3515 -10.2826 -22.4691
ltibia 16.6874
lfoot -13.0963 -0.773506
ltoes -21.6947
358
root 6.94378 16.1793 23.8253 -156.433 0.989317 178.386
lowerback -22.398 -2.07141 -6.47654
upperback 0.833078 -0.715533 -0.670741
thorax 13.695 -0.675084 2.72382
lowerneck -3.07159 -3.13126 -1.43785
upperneck 16.0986 -4.05682 4.80413
head 5.47673 -1.42669 1.54068
rclavicle 1.09332e-015 -2.98177e-014
rhumerus -39.054 -17.4307 -76.7966
rradius 36.5059
rwrist -3.83041
rhand -8.37985 -54.1415
rfingers 7.12502
rthumb 17.5433 -83.37
lclavicle 1.09332e-015 -2.98177e-014
lhumerus -28.48 3.96887 80.2353
lradius 29.8178
lwrist 0.0713132
lhand -21.7134 -13.4014
lfingers 7.12502
lthumb 4.68553 16.5268
rfemur -49.9845 -0.478493 17.6084
rtibia 45.8636
rfoot -18.3568 -14.7891
rtoes -36.4737
lfemur -23.9198 -10.3001 -22.4569
ltibia 16.5573
lfoot -13.2996 -0.894886
ltoes -21.2562
359
root 6.94919 16.1747 23.7366 -156.355 0.871047 178.467
lowerback -22.4755 -2.10803 -6.36732
upperback 0.808481 -0.798956 -0.595347
thorax 13.7173 -0.709067 2.71866
lowerneck -2.96258 -3.13225 -1.58317
upperneck 15.9953 -4.07704 5.04574
head 5.43416 -1.43241 1.64046
rclavicle -8.84592e-015 6.75868e-015
rhumerus -39.3606 -17.8614 -76.3638
rradius 35.9601
rwrist -3.50786
rhand -8.21844 -54.0018
rfingers 7.12502
rthumb 17.6986 -83.2164
lclavicle -8.84592e-015 6.75868e-015
lhumerus -28.2423 3.5574 80.348
lradius 29.9614
lwrist 0.170665
lhand -21.8003 -13.5753
lfingers 7.12502
lthumb 4.60159 16.3547
rfemur -50.0676 -0.399078 17.3083
rtibia 43.3711
rfoot -17.994 -15.0503
rtoes -35.764
lfemur -23.5416 -10.3605 -22.3569
ltibia 16.3343
lfoot -13.4484 -0.982054
ltoes -21.3979
360
root 6.95446 16.1677 23.6424 -156.337 0.589784 178.602
lowerback -22.7067 -2.19792 -6.15559
upperback 0.922465 -0.975317 -0.504336
thorax 13.9981 -0.791971 2.63602
lowerneck -2.98283 -3.26051 -1.62481
upperneck 15.8626 -4.28121 5.2091
head 5.40793 -1.53137 1.68557
rclavicle -1.98785e-016 3.89618e-014
rhumerus -39.531 -18.3212 -76.0514
rradius 35.5166
rwrist -3.15676
rhand -8.14074 -53.7615
rfingers 7.12502
rthumb 17.7734 -82.9692
lclavicle -1.98785e-016 3.89618e-014
lhumerus -27.9034 3.28397 80.379
lradius 30.0858
lwrist -0.00669705
lhand -21.8381 -13.9635
lfingers 7.12502
lthumb 4.56508 15.9673
rfemur -49.9372 -0.487908 17.1613
rtibia 40.6389
rfoot -17.5293 -15.2815
rtoes -35.5677
lfemur -23.0906 -10.4275 -22.1895
ltibia 16.1294
lfoot -13.6046 -1.17855
ltoes -21.2202
